<?xml version="1.0" encoding="UTF-8" standalone="no"?>
<svg
   width="16"
   height="16"
   version="1.1"
   id="svg9"
   sodipodi:docname="nm-wired-stage01-connecting05.svg"
   inkscape:version="1.1.1 (3bf5ae0d25, 2021-09-20, custom)"
   viewBox="0 0 16 16"
   xmlns:inkscape="http://www.inkscape.org/namespaces/inkscape"
   xmlns:sodipodi="http://sodipodi.sourceforge.net/DTD/sodipodi-0.dtd"
   xmlns="http://www.w3.org/2000/svg"
   xmlns:svg="http://www.w3.org/2000/svg">
  <sodipodi:namedview
     id="namedview11"
     pagecolor="#505050"
     bordercolor="#ffffff"
     borderopacity="1"
     inkscape:pageshadow="0"
     inkscape:pageopacity="0"
     inkscape:pagecheckerboard="1"
     showgrid="false"
     inkscape:zoom="29.958333"
     inkscape:cx="11.198887"
     inkscape:cy="11.98331"
     inkscape:window-width="2544"
     inkscape:window-height="1330"
     inkscape:window-x="0"
     inkscape:window-y="34"
     inkscape:window-maximized="1"
     inkscape:current-layer="svg9"
     scale-x="1" />
  <defs
     id="defs3">
    <style
       id="current-color-scheme"
       type="text/css">
   .ColorScheme-Text { color:#eeeeec; } .ColorScheme-Highlight { color:#367bf0; } .ColorScheme-NeutralText { color:#ffcc44; } .ColorScheme-PositiveText { color:#3db47e; } .ColorScheme-NegativeText { color:#dd4747; }
  </style>
  </defs>
  <path
     style="opacity:0.3;fill:#dfdfdf;fill-opacity:1"
     class="ColorScheme-Text"
     d="M 1,2 C 1,2 0,2 0,3 V 6 H 2 V 4 H 3 V 6 H 4 V 4 H 5 V 6 H 6 V 4 H 7 V 6 H 8 V 4 h 1 v 2 h 1 V 4 h 1 v 2 h 1 V 4 h 1 v 2 h 2 V 3 C 15,2 14,2 14,2 Z m -1,9 v 2 c 0,1 1,1 1,1 h 2 l 1,1 h 7 l 1,-1 h 2 c 0,0 1,0.13 1,-1 v -2 h -2 v 1 h -2 l -1,1 H 5 L 4,12 H 2 v -1 z"
     id="path5" />
  <path
     id="path7"
     style="fill:#dfdfdf;fill-opacity:1;opacity:0.3"
     class="ColorScheme-Text"
     d="M 12.5 7 A 1.5 1.5 0 0 0 11 8.5 A 1.5 1.5 0 0 0 12.5 10 A 1.5 1.5 0 0 0 14 8.5 A 1.5 1.5 0 0 0 12.5 7 z " />
  <path
     id="path1249"
     style="fill:#dfdfdf;fill-opacity:1;opacity:1"
     class="ColorScheme-Text"
     d="M 7.5 7 A 1.5 1.5 0 0 0 6 8.5 A 1.5 1.5 0 0 0 7.5 10 A 1.5 1.5 0 0 0 9 8.5 A 1.5 1.5 0 0 0 7.5 7 z " />
  <path
     id="path1055"
     style="fill:#dfdfdf;fill-opacity:1;opacity:0.3"
     class="ColorScheme-Text"
     d="M 2.5 7 A 1.5 1.5 0 0 0 1 8.5 A 1.5 1.5 0 0 0 2.5 10 A 1.5 1.5 0 0 0 4 8.5 A 1.5 1.5 0 0 0 2.5 7 z " />
</svg>
