<?xml version="1.0" encoding="UTF-8" standalone="no"?>
<svg
   width="16"
   height="16"
   version="1.1"
   id="svg9"
   sodipodi:docname="hexchat-indicator.svg"
   inkscape:version="1.1.1 (3bf5ae0d25, 2021-09-20, custom)"
   inkscape:export-filename="/home/gavin/.icons/Marion/16/custom/hexchat-indicator.png"
   inkscape:export-xdpi="96"
   inkscape:export-ydpi="96"
   xmlns:inkscape="http://www.inkscape.org/namespaces/inkscape"
   xmlns:sodipodi="http://sodipodi.sourceforge.net/DTD/sodipodi-0.dtd"
   xmlns="http://www.w3.org/2000/svg"
   xmlns:svg="http://www.w3.org/2000/svg">
  <sodipodi:namedview
     id="namedview11"
     pagecolor="#505050"
     bordercolor="#ffffff"
     borderopacity="1"
     inkscape:pageshadow="0"
     inkscape:pageopacity="0"
     inkscape:pagecheckerboard="1"
     showgrid="false"
     inkscape:zoom="29.958333"
     inkscape:cx="9.396384"
     inkscape:cy="11.98331"
     inkscape:window-width="2544"
     inkscape:window-height="1330"
     inkscape:window-x="0"
     inkscape:window-y="34"
     inkscape:window-maximized="1"
     inkscape:current-layer="svg9" />
  <defs
     id="defs3">
    <style
       id="current-color-scheme"
       type="text/css">
   .ColorScheme-Text { color:#eeeeec; } .ColorScheme-Highlight { color:#367bf0; } .ColorScheme-NeutralText { color:#ffcc44; } .ColorScheme-PositiveText { color:#3db47e; } .ColorScheme-NegativeText { color:#dd4747; }
  </style>
  </defs>
  <g
     id="g7"
     style="fill:#dfdfdf;fill-opacity:1"
     transform="matrix(0.99998886,0,0,1,-2.9999666,-4.000473)">
    <path
       style="fill:#dfdfdf;fill-opacity:1"
       class="ColorScheme-Text"
       d="M 7.5085981,5.0004733 C 7.1489137,5.0001918 6.8163031,5.18985 6.6356835,5.4982188 L 3.1362503,11.497381 c -0.1816671,0.310332 -0.1816671,0.693379 0,1.003711 L 6.6356835,18.4999 C 6.8162125,18.808405 7.1488401,19.000208 7.5085981,19 h 6.9868599 c 0.359125,-4.18e-4 0.690932,-0.192137 0.871143,-0.5001 l 3.497327,-5.998808 c 0.181667,-0.310332 0.181667,-0.693379 0,-1.003711 L 15.366601,5.4982188 C 15.186299,5.1903924 14.85451,5.0008176 14.495458,5.0004733 Z m 6.1142639,1.9996264 c 0.257517,-1.037e-4 0.497396,0.1235124 0.636618,0.3280657 v 0.00195 L 11.001993,10.58548 7.744859,7.3279925 C 7.877544,7.1325547 8.1025553,7.0102056 8.3481762,6.999941 Z M 6.6708268,9.0817744 9.5882181,11.999166 6.6708268,14.916911 5.104611,12.358747 c -0.1369379,-0.222096 -0.1369379,-0.496535 0,-0.718631 L 6.6707205,9.0819869 Z m 8.6625442,0 1.566109,2.5581286 c 0.136938,0.222096 0.136938,0.496535 0,0.718631 l -1.566216,2.558519 -2.917391,-2.917746 2.917391,-2.9173909 z m -4.331272,4.3312726 3.255362,3.255362 c -0.138354,0.20474 -0.377422,0.329058 -0.634635,0.330018 H 8.3814419 c -0.2575141,1.07e-4 -0.497393,-0.123504 -0.6366183,-0.328052 l 3.2571334,-3.257488 z"
       id="path5" />
  </g>
</svg>
