<?xml version="1.0" encoding="UTF-8" standalone="no"?>
<svg
   width="16"
   height="16"
   version="1.1"
   id="svg7"
   sodipodi:docname="network-wired.svg"
   inkscape:version="1.1.1 (3bf5ae0d25, 2021-09-20, custom)"
   xmlns:inkscape="http://www.inkscape.org/namespaces/inkscape"
   xmlns:sodipodi="http://sodipodi.sourceforge.net/DTD/sodipodi-0.dtd"
   xmlns="http://www.w3.org/2000/svg"
   xmlns:svg="http://www.w3.org/2000/svg">
  <sodipodi:namedview
     id="namedview9"
     pagecolor="#505050"
     bordercolor="#ffffff"
     borderopacity="1"
     inkscape:pageshadow="0"
     inkscape:pageopacity="0"
     inkscape:pagecheckerboard="1"
     showgrid="false"
     inkscape:zoom="29.958333"
     inkscape:cx="11.198887"
     inkscape:cy="11.98331"
     inkscape:window-width="2544"
     inkscape:window-height="1330"
     inkscape:window-x="0"
     inkscape:window-y="34"
     inkscape:window-maximized="1"
     inkscape:current-layer="svg7" />
  <defs
     id="defs3">
    <style
       id="current-color-scheme"
       type="text/css">
   .ColorScheme-Text { color:#eeeeec; } .ColorScheme-Highlight { color:#367bf0; } .ColorScheme-NeutralText { color:#ffcc44; } .ColorScheme-PositiveText { color:#3db47e; } .ColorScheme-NegativeText { color:#dd4747; }
  </style>
  </defs>
  <path
     style="fill:#dfdfdf;fill-opacity:1"
     class="ColorScheme-Text"
     d="M 1,2 C 1,2 0,2 0,3 v 10 c 0,1 1,1 1,1 h 2 l 1,1 h 7 l 1,-1 h 2 c 0,0 1,0.13 1,-1 V 3 C 15,2 14,2 14,2 Z M 2,4 H 3 V 5.9999996 H 4 V 4 H 5 V 5.9999996 H 6 V 4 H 7 V 5.9999996 H 8 V 4 h 1 v 1.9999996 h 1 V 4 h 1 v 1.9999996 h 1 V 4 h 1 v 8 h -2 l -1,1 H 5 L 4,12 H 2 Z"
     id="path5" />
</svg>
