<?xml version="1.0" encoding="UTF-8" standalone="no"?>
<svg
   width="16"
   height="16"
   enable-background="new"
   version="1.0"
   id="svg5"
   sodipodi:docname="archlinux-disabled.svg"
   inkscape:version="1.3.2 (091e20ef0f, 2023-11-25, custom)"
   xmlns:inkscape="http://www.inkscape.org/namespaces/inkscape"
   xmlns:sodipodi="http://sodipodi.sourceforge.net/DTD/sodipodi-0.dtd"
   xmlns="http://www.w3.org/2000/svg"
   xmlns:svg="http://www.w3.org/2000/svg"
   xmlns:rdf="http://www.w3.org/1999/02/22-rdf-syntax-ns#"
   xmlns:cc="http://creativecommons.org/ns#"
   xmlns:dc="http://purl.org/dc/elements/1.1/">
  <sodipodi:namedview
     id="namedview5"
     pagecolor="#505050"
     bordercolor="#ffffff"
     borderopacity="1"
     inkscape:showpageshadow="0"
     inkscape:pageopacity="0"
     inkscape:pagecheckerboard="1"
     inkscape:deskcolor="#d1d1d1"
     inkscape:zoom="50.248775"
     inkscape:cx="8.4977196"
     inkscape:cy="7.512621"
     inkscape:window-width="3438"
     inkscape:window-height="1372"
     inkscape:window-x="0"
     inkscape:window-y="34"
     inkscape:window-maximized="1"
     inkscape:current-layer="svg5" />
  <title
     id="title1">Paper Icon Theme</title>
  <defs
     id="defs1">
    <filter
       id="a"
       x="-0.024"
       y="-0.024"
       width="1.048"
       height="1.048"
       color-interpolation-filters="sRGB">
      <feGaussianBlur
         stdDeviation="4.48"
         id="feGaussianBlur1" />
    </filter>
  </defs>
  <g
     id="g1"
     transform="translate(0,212)" />
  <path
     d="M 7.99881,5e-5 C 7.28652,1.746034 6.85688,2.888123 6.06387,4.58216 6.55011,5.09745 7.14694,5.69755 8.11619,6.37529 7.07413,5.94659 6.36333,5.5162 5.83218,5.06955 4.81722,7.18693 3.2271,10.203 0,15.99995 2.536211,14.53606 4.50226,13.63357 6.33428,13.28918 6.25558,12.95086 6.21087,12.58488 6.21391,12.20309 l 0.003,-0.0812 c 0.0403,-1.62454 0.88553,-2.87383 1.88678,-2.78898 1.00131,0.0848 1.77961,1.47134 1.73935,3.09587 -0.008,0.30569 -0.0421,0.59975 -0.10231,0.8725 1.81236,0.35445 3.75736,1.25463 6.25926,2.69872 -0.49332,-0.90804 -0.93364,-1.72658 -1.35417,-2.50618 -0.66239,-0.51324 -1.35323,-1.18129 -2.76251,-1.90443 0.96865,0.25164 1.66219,0.54195 2.20279,0.86649 C 9.81069,4.49746 9.46447,3.439968 7.99838,0 Z"
     enable-background="new"
     fill="#ffffff"
     fill-rule="evenodd"
     id="path4"
     style="stroke-width:0.0500047;fill:#dedede;fill-opacity:1;opacity:0.3" />
  <metadata
     id="metadata1">
    <rdf:RDF>
      <cc:Work
         rdf:about="">
        <dc:title>Paper Icon Theme</dc:title>
      </cc:Work>
    </rdf:RDF>
  </metadata>
</svg>
