<?xml version="1.0" encoding="UTF-8" standalone="no"?>
<svg
   width="16"
   height="16"
   version="1.1"
   id="svg7"
   sodipodi:docname="clipboard.svg"
   inkscape:version="1.1.1 (3bf5ae0d25, 2021-09-20, custom)"
   xmlns:inkscape="http://www.inkscape.org/namespaces/inkscape"
   xmlns:sodipodi="http://sodipodi.sourceforge.net/DTD/sodipodi-0.dtd"
   xmlns="http://www.w3.org/2000/svg"
   xmlns:svg="http://www.w3.org/2000/svg">
  <sodipodi:namedview
     id="namedview9"
     pagecolor="#ffffff"
     bordercolor="#666666"
     borderopacity="1.0"
     inkscape:pageshadow="2"
     inkscape:pageopacity="0.0"
     inkscape:pagecheckerboard="0"
     showgrid="false"
     inkscape:zoom="54.5625"
     inkscape:cx="7.7250859"
     inkscape:cy="7.9908362"
     inkscape:window-width="2544"
     inkscape:window-height="1330"
     inkscape:window-x="0"
     inkscape:window-y="34"
     inkscape:window-maximized="1"
     inkscape:current-layer="svg7" />
  <defs
     id="defs3">
    <style
       id="current-color-scheme"
       type="text/css">
   .ColorScheme-Text { color:#dfdfdf; } .ColorScheme-Highlight { color:#4285f4; }
  </style>
  </defs>
  <path
     style="fill:currentColor"
     class="ColorScheme-Text"
     d="m 11.920944,2.0231 -0.362,-0.3098 C 11.020944,1.2533 10.343944,1 9.6529516,1 8.7293648,1 7.8679648,1.4335 7.2894648,2.1892 l -5.5668,7.2738 c -0.5101,0.666 -0.74360002,1.502 -0.6586,2.356 0.0851,0.852 0.4784,1.618 1.1087,2.157 l 0.3622,0.31 c 0.5375,0.461 1.2145,0.714 1.9064,0.714 0.1068,0 0.2149,-0.005 0.3212,-0.017 0.8013,-0.09 1.5232,-0.502 2.0297,-1.157 0.0017,-0.002 0.0026,-0.004 3.7556792,-4.9072 0.669,-0.8733 0.54,-2.159 -0.285,-2.8659 l -0.19,-0.1618 C 9.73095,5.599 9.3019596,5.4382 8.8622648,5.4382 c -0.5863,0 -1.1331,0.2752 -1.5,0.7551 l -3.7491,4.8977 c -0.2449,0.321 -0.198,0.791 0.1048,1.05 0.1253,0.108 0.2829,0.167 0.4439,0.167 0.2144,0 0.4147,-0.101 0.5496,-0.277 l 3.7488,-4.8981 c 0.0977,-0.1284 0.2434,-0.2019 0.4003,-0.2019 0.1191,0 0.2303992,0.0418 0.3233972,0.1208 l 0.188996,0.1624 c 0.1069976,0.091 0.173996,0.2214 0.1889956,0.3658 0.013,0.1452 -0.026,0.287 -0.1129972,0.3999 L 5.7052648,12.872 c -0.3092,0.403 -0.7695,0.635 -1.2628,0.635 -0.3698,0 -0.7318,-0.135 -1.0191,-0.381 l -0.3622,-0.31 c -0.3358,-0.287 -0.5465,-0.696 -0.5918,-1.152 -0.0455,-0.456 0.0796,-0.903 0.3523,-1.26 l 5.5675,-7.2732 c 0.3094,-0.4039 0.7697976,-0.6356 1.2637868,-0.6356 0.3699924,0 0.7319924,0.1354 1.0189924,0.3811 l 0.362,0.3098 c 0.695,0.5952 0.803,1.6776 0.24,2.413 -0.118,0.1551 -0.173,0.3497 -0.153,0.5482 0.02,0.1983 0.111,0.3767 0.259,0.5021 0.125,0.1072 0.283,0.1663 0.443,0.1663 0.215,0 0.415,-0.1009 0.55,-0.2769 0.509,-0.6655 0.742,-1.502 0.657,-2.3563 -0.086,-0.8545 -0.479,-1.6211 -1.109,-2.1594 z"
     id="path5" />
</svg>
