<?xml version="1.0" encoding="UTF-8" standalone="no"?>
<svg
   width="16"
   height="16"
   viewBox="0 0 16 16"
   version="1.1"
   id="svg1"
   sodipodi:docname="headset.svg"
   inkscape:version="1.3.2 (091e20ef0f, 2023-11-25, custom)"
   xmlns:inkscape="http://www.inkscape.org/namespaces/inkscape"
   xmlns:sodipodi="http://sodipodi.sourceforge.net/DTD/sodipodi-0.dtd"
   xmlns="http://www.w3.org/2000/svg"
   xmlns:svg="http://www.w3.org/2000/svg">
  <sodipodi:namedview
     id="namedview1"
     pagecolor="#505050"
     bordercolor="#ffffff"
     borderopacity="1"
     inkscape:showpageshadow="0"
     inkscape:pageopacity="0"
     inkscape:pagecheckerboard="1"
     inkscape:deskcolor="#d1d1d1"
     inkscape:zoom="71.0625"
     inkscape:cx="8"
     inkscape:cy="8.2251539"
     inkscape:window-width="1718"
     inkscape:window-height="1372"
     inkscape:window-x="1718"
     inkscape:window-y="34"
     inkscape:window-maximized="0"
     inkscape:current-layer="svg1" />
  <defs
     id="defs1">
    <style
       id="current-color-scheme"
       type="text/css">
   .ColorScheme-Text { color:#727272; } .ColorScheme-Highlight { color:#5294e2; }
  </style>
  </defs>
  <g
     id="g1"
     style="fill:#dedede;fill-opacity:1">
    <path
       style="fill:#dedede;fill-opacity:1"
       class="ColorScheme-Text"
       d="M 8 2 C 4.676 2 2 4.676 2 8 L 2 12 C 2 12 2 14 4 14 L 6 14 L 6 9 L 4 9 L 4 8 C 4 5.784 5.784 4 8 4 C 10.216 4 12 5.784 12 8 L 12 9 L 10 9 L 10 14 L 12 14 C 12 14 14 14 14 12 L 14 8 C 14 4.676 11.324 2 8 2 z"
       id="path1" />
    <circle
       style="color:#dfdfdf;fill:#dedede;fill-opacity:1"
       class="ColorScheme-Text"
       cx="8"
       cy="15"
       id="circle1"
       r="1" />
    <path
       d="m 11.75,15 c 0.138,0 0.25,0.1115 0.25,0.25 v 0.5 C 12,15.8885 11.888,16 11.75,16 H 10 v -1 z"
       style="color:#dfdfdf;fill:#dedede;fill-opacity:1"
       id="path1-2" />
    <path
       d="M 12,15.75 C 12,15.888 11.8885,16 11.75,16 h -0.5 C 11.1115,16 11,15.888 11,15.75 V 14 h 1 z"
       style="color:#dfdfdf;fill:#dedede;fill-opacity:1"
       id="path1-2-2" />
    <path
       d="m 11,15 v 1 H 8 v -1 z"
       style="color:#dfdfdf;fill:#dedede;stroke-width:0.866023;fill-opacity:1"
       id="path1-3" />
    <path
       d="m 11,15 v 1 H 8 v -1 z"
       style="color:#dfdfdf;fill:#dedede;stroke-width:0.866023;fill-opacity:1"
       id="path1-3-7" />
    <path
       d="m 12,13 v 2 h -1 v -2 z"
       style="color:#dfdfdf;fill:#dedede;stroke-width:0.707105;fill-opacity:1"
       id="path1-3-2" />
  </g>
</svg>
