<?xml version="1.0" encoding="UTF-8" standalone="no"?>
<svg
   width="16"
   height="16"
   viewBox="0 0 16 16"
   version="1.1"
   id="svg1"
   sodipodi:docname="rhythmbox-playing.svg"
   inkscape:version="1.3.2 (091e20ef0f, 2023-11-25, custom)"
   xmlns:inkscape="http://www.inkscape.org/namespaces/inkscape"
   xmlns:sodipodi="http://sodipodi.sourceforge.net/DTD/sodipodi-0.dtd"
   xmlns="http://www.w3.org/2000/svg"
   xmlns:svg="http://www.w3.org/2000/svg">
  <sodipodi:namedview
     id="namedview1"
     pagecolor="#505050"
     bordercolor="#ffffff"
     borderopacity="1"
     inkscape:showpageshadow="0"
     inkscape:pageopacity="0"
     inkscape:pagecheckerboard="1"
     inkscape:deskcolor="#d1d1d1"
     inkscape:zoom="71.0625"
     inkscape:cx="8"
     inkscape:cy="8"
     inkscape:window-width="3438"
     inkscape:window-height="1372"
     inkscape:window-x="0"
     inkscape:window-y="34"
     inkscape:window-maximized="1"
     inkscape:current-layer="svg1" />
  <defs
     id="defs1">
    <style
       id="current-color-scheme"
       type="text/css">
   .ColorScheme-Text { color:#727272; } .ColorScheme-Highlight { color:#5294e2; }
  </style>
  </defs>
  <path
     style="fill:#dfdfdf;fill-opacity:1"
     class="ColorScheme-Text"
     d="M 4,1 C 2,1 2,3 2,3 v 11 c 0,2 1.8933,1.9964 2,2 h 8 c 0,0 2,-0.004 2,-2 V 3 C 14,1 12,1 12,1 Z M 8,3 C 8.55407,3 9,3.44945 9,4 9,4.55064 8.55407,5 8,5 7.44576,5 7,4.55064 7,4 7,3.44945 7.44576,3 8,3 Z m 0,3 c 2.2091,0 4,1.7909 4,4 0,2.2091 -1.7909,4 -4,4 C 5.7909,14 4,12.2091 4,10 4,7.7909 5.7909,6 8,6 Z"
     id="path1"
     sodipodi:nodetypes="scsccsscsssssssssss" />
  <path
     d="m 7.4668207,8.0001523 c -0.2566266,-0.0072 -0.467265,0.241874 -0.46682,0.550781 v 1.4492187 1.449219 c -1.48e-4,0.422609 0.3791117,0.687064 0.6836277,0.476562 l 1.0449735,-0.724609 1.0430193,-0.72461 c 0.3045048,-0.211505 0.3045048,-0.7396657 0,-0.9511707 L 8.7286019,8.7989803 7.6836284,8.0743713 C 7.6175951,8.0284413 7.5430545,8.0025123 7.4668207,8.0001523 Z"
     style="color:#dfdfdf;fill:currentColor;fill-rule:evenodd;stroke-width:1.00002"
     id="path1-5" />
</svg>
