<?xml version="1.0" encoding="UTF-8" standalone="no"?>
<svg
   width="16"
   height="16"
   viewBox="0 0 16 16"
   version="1.1"
   id="svg1"
   sodipodi:docname="rhythmbox-tray.svg"
   inkscape:version="1.4 (e7c3feb100, 2024-10-09)"
   xmlns:inkscape="http://www.inkscape.org/namespaces/inkscape"
   xmlns:sodipodi="http://sodipodi.sourceforge.net/DTD/sodipodi-0.dtd"
   xmlns="http://www.w3.org/2000/svg"
   xmlns:svg="http://www.w3.org/2000/svg">
  <sodipodi:namedview
     id="namedview1"
     pagecolor="#505050"
     bordercolor="#ffffff"
     borderopacity="1"
     inkscape:showpageshadow="0"
     inkscape:pageopacity="0"
     inkscape:pagecheckerboard="1"
     inkscape:deskcolor="#d1d1d1"
     inkscape:zoom="71.0625"
     inkscape:cx="8"
     inkscape:cy="7.9859279"
     inkscape:window-width="3438"
     inkscape:window-height="1372"
     inkscape:window-x="0"
     inkscape:window-y="34"
     inkscape:window-maximized="1"
     inkscape:current-layer="svg1" />
  <defs
     id="defs1">
    <style
       id="current-color-scheme"
       type="text/css">
   .ColorScheme-Text { color:#727272; } .ColorScheme-Highlight { color:#5294e2; }
  </style>
  </defs>
  <path
     style="fill:#dfdfdf;fill-opacity:1"
     class="ColorScheme-Text"
     d="M 4,0 C 2,0 2,2 2,2 v 11 c 0,2 1.8933,1.9964 2,2 h 8 c 0,0 2,-0.004 2,-2 V 2 C 14,0 12,0 12,0 Z M 8,2 C 8.55407,2 9,2.44945 9,3 9,3.55064 8.55407,4 8,4 7.44576,4 7,3.55064 7,3 7,2.44945 7.44576,2 8,2 Z m 0,3 c 2.2091,0 4,1.7909 4,4 0,2.2091 -1.7909,4 -4,4 C 5.7909,13 4,11.2091 4,9 4,6.7909 5.7909,5 8,5 Z M 8,7 C 6.8954,7 6,7.89543 6,9 c 0,1.10457 0.89543,2 2,2 1.10457,0 2,-0.89543 2,-2 C 10,7.89543 9.10457,7 8,7 Z"
     id="path1" />
</svg>
