<?xml version="1.0" encoding="UTF-8" standalone="no"?>
<svg
   width="16"
   height="16"
   viewBox="0 0 16 16"
   version="1.1"
   id="svg1"
   sodipodi:docname="audio-speakers.svg"
   inkscape:version="1.3.2 (091e20ef0f, 2023-11-25, custom)"
   xmlns:inkscape="http://www.inkscape.org/namespaces/inkscape"
   xmlns:sodipodi="http://sodipodi.sourceforge.net/DTD/sodipodi-0.dtd"
   xmlns="http://www.w3.org/2000/svg"
   xmlns:svg="http://www.w3.org/2000/svg">
  <sodipodi:namedview
     id="namedview1"
     pagecolor="#505050"
     bordercolor="#ffffff"
     borderopacity="1"
     inkscape:showpageshadow="0"
     inkscape:pageopacity="0"
     inkscape:pagecheckerboard="1"
     inkscape:deskcolor="#d1d1d1"
     inkscape:zoom="71.0625"
     inkscape:cx="8"
     inkscape:cy="8"
     inkscape:window-width="3438"
     inkscape:window-height="1372"
     inkscape:window-x="0"
     inkscape:window-y="34"
     inkscape:window-maximized="1"
     inkscape:current-layer="svg1" />
  <defs
     id="defs1">
    <style
       id="current-color-scheme"
       type="text/css">
   .ColorScheme-Text { color:#727272; } .ColorScheme-Highlight { color:#5294e2; }
  </style>
  </defs>
  <path
     style="fill:#dfdfdf;fill-opacity:1"
     class="ColorScheme-Text"
     d="M 4 1 C 2 1 2 3 2 3 L 2 14 C 2 16 3.8933 15.9964 4 16 L 12 16 C 12 16 14 15.996 14 14 L 14 3 C 14 1 12 1 12 1 L 4 1 z M 8 3 C 8.55407 3 9 3.44945 9 4 C 9 4.55064 8.55407 5 8 5 C 7.44576 5 7 4.55064 7 4 C 7 3.44945 7.44576 3 8 3 z M 8 6 C 10.2091 6 12 7.7909 12 10 C 12 12.2091 10.2091 14 8 14 C 5.7909 14 4 12.2091 4 10 C 4 7.7909 5.7909 6 8 6 z M 8 8 C 6.8954 8 6 8.89543 6 10 C 6 11.10457 6.89543 12 8 12 C 9.10457 12 10 11.10457 10 10 C 10 8.89543 9.10457 8 8 8 z"
     id="path1" />
</svg>
