<?xml version="1.0" encoding="UTF-8" standalone="no"?>
<svg
   width="16"
   height="16"
   version="1"
   id="svg1"
   sodipodi:docname="rhythmbox-tray.svg"
   inkscape:version="1.3.2 (091e20ef0f, 2023-11-25, custom)"
   xmlns:inkscape="http://www.inkscape.org/namespaces/inkscape"
   xmlns:sodipodi="http://sodipodi.sourceforge.net/DTD/sodipodi-0.dtd"
   xmlns="http://www.w3.org/2000/svg"
   xmlns:svg="http://www.w3.org/2000/svg">
  <sodipodi:namedview
     id="namedview1"
     pagecolor="#505050"
     bordercolor="#ffffff"
     borderopacity="1"
     inkscape:showpageshadow="0"
     inkscape:pageopacity="0"
     inkscape:pagecheckerboard="1"
     inkscape:deskcolor="#d1d1d1"
     inkscape:zoom="49.851028"
     inkscape:cx="5.6367945"
     inkscape:cy="5.1152405"
     inkscape:window-width="3426"
     inkscape:window-height="1363"
     inkscape:window-x="0"
     inkscape:window-y="34"
     inkscape:window-maximized="1"
     inkscape:current-layer="svg1" />
  <defs
     id="defs1">
    <style
       id="current-color-scheme"
       type="text/css">
   .ColorScheme-Text { color:#dfdfdf; } .ColorScheme-Highlight { color:#4285f4; }
  </style>
  </defs>
  <path
     style="fill:currentColor;fill-rule:evenodd"
     class="ColorScheme-Text"
     d="M 3.5,15 C 2.669,15 2,14.331 2,13.5 V 2.5 C 2,1.669 2.669,1 3.5,1 h 8 C 12.331,1 13,1.669 13,2.5 v 11 c 0,0.831 -0.669,1.5 -1.5,1.5 z m 4,-2 C 9.433,13 11,11.433 11,9.5 11,7.567 9.433,6 7.5,6 5.5666,6 3.9995,7.567 4,9.5 3.9995,11.433 5.5666,13 7.5,13 Z m 0,-2 C 6.672,11 6,10.328 6,9.5 6,8.672 6.672,8 7.5,8 8.328,8 9,8.672 9,9.5 9,10.328 8.328,11 7.5,11 Z M 5,5 C 5.5524,5 6,4.5522 6,4 6,3.4478 5.5524,3 5,3 4.4476,3 3.9998,3.4478 4,4 3.9998,4.5522 4.4476,5 5,5 Z m 5,0 C 10.552,5 11,4.5522 11,4 11,3.4478 10.552,3 10,3 9.448,3 9,3.4478 9,4 9,4.5522 9.448,5 10,5 Z"
     id="path1" />
</svg>
