<?xml version="1.0" encoding="UTF-8" standalone="no"?>
<svg
   width="16"
   height="16"
   version="1"
   id="svg1"
   sodipodi:docname="headphones-inactive.svg"
   inkscape:version="1.3.2 (091e20ef0f, 2023-11-25, custom)"
   xmlns:inkscape="http://www.inkscape.org/namespaces/inkscape"
   xmlns:sodipodi="http://sodipodi.sourceforge.net/DTD/sodipodi-0.dtd"
   xmlns="http://www.w3.org/2000/svg"
   xmlns:svg="http://www.w3.org/2000/svg">
  <sodipodi:namedview
     id="namedview1"
     pagecolor="#505050"
     bordercolor="#ffffff"
     borderopacity="1"
     inkscape:showpageshadow="0"
     inkscape:pageopacity="0"
     inkscape:pagecheckerboard="1"
     inkscape:deskcolor="#d1d1d1"
     inkscape:zoom="71.0625"
     inkscape:cx="8"
     inkscape:cy="8"
     inkscape:window-width="3438"
     inkscape:window-height="1372"
     inkscape:window-x="0"
     inkscape:window-y="34"
     inkscape:window-maximized="1"
     inkscape:current-layer="svg1" />
  <defs
     id="defs1">
    <style
       id="current-color-scheme"
       type="text/css">
   .ColorScheme-Text { color:#dfdfdf; } .ColorScheme-Highlight { color:#4285f4; }
  </style>
  </defs>
  <path
     style="fill:currentColor;opacity:0.3"
     class="ColorScheme-Text"
     d="M 8,1 C 4.134,1 1,4.134 1,8 V 9.361 C 0.35712,10.09 0.00164,10.778 0,11.75 0,13.959 1.7909,15 4,15 H 5 V 8 H 4 C 3.6624,8.002 3.3264,8.0466 3,8.133 V 8 C 3,5.23 5.23,3 8,3 10.77,3 13,5.23 13,8 V 8.131 C 12.674,8.0453 12.338,8.0013 12,8 H 11 V 15 H 12 C 14.209,15 16,13.959 16,11.75 15.998,10.778 15.643,10.09 15,9.361 V 8 C 15,4.1342 11.866,1.0002 8,1.0002 Z"
     id="path1" />
</svg>
