<?xml version="1.0" encoding="UTF-8" standalone="no"?>
<svg
   width="16"
   height="16"
   version="1.1"
   id="svg9"
   sodipodi:docname="network-wired-offline.svg"
   inkscape:version="1.1.1 (3bf5ae0d25, 2021-09-20, custom)"
   xmlns:inkscape="http://www.inkscape.org/namespaces/inkscape"
   xmlns:sodipodi="http://sodipodi.sourceforge.net/DTD/sodipodi-0.dtd"
   xmlns="http://www.w3.org/2000/svg"
   xmlns:svg="http://www.w3.org/2000/svg">
  <sodipodi:namedview
     id="namedview11"
     pagecolor="#505050"
     bordercolor="#ffffff"
     borderopacity="1"
     inkscape:pageshadow="0"
     inkscape:pageopacity="0"
     inkscape:pagecheckerboard="1"
     showgrid="false"
     inkscape:zoom="29.958333"
     inkscape:cx="10.698192"
     inkscape:cy="11.98331"
     inkscape:window-width="2544"
     inkscape:window-height="1330"
     inkscape:window-x="0"
     inkscape:window-y="34"
     inkscape:window-maximized="1"
     inkscape:current-layer="svg9"
     inkscape:snap-global="false" />
  <defs
     id="defs3">
    <style
       id="current-color-scheme"
       type="text/css">
   .ColorScheme-Text { color:#eeeeec; } .ColorScheme-Highlight { color:#367bf0; } .ColorScheme-NeutralText { color:#ffcc44; } .ColorScheme-PositiveText { color:#3db47e; } .ColorScheme-NegativeText { color:#dd4747; }
  </style>
  </defs>
  <path
     style="opacity:0.3;fill:#dfdfdf;fill-opacity:1;stroke-width:1"
     class="ColorScheme-Text"
     d="M 1,2 C 1,2 0,2 0,3.0000001 V 13 c 0,1 1,1 1,1 h 2 l 1,1 h 6 V 13 H 5 L 4,12 H 2 V 4.0000001 H 3 V 6 H 4 V 4.0000001 H 5 V 6 H 6 V 4.0000001 H 7 V 6 H 8 V 4.0000001 H 9 V 6 h 1 V 4.0000001 h 1 V 6 h 1 V 4.0000001 h 1 V 10 h 2 V 3.0000001 C 15,2 14,2 14,2 Z"
     id="path5" />
  <path
     style="fill:#dfdfdf;stroke-width:1;fill-opacity:1"
     class="ColorScheme-Text"
     d="m 11,11 v 1 c 0,0.27 0.1,0.53 0.28,0.72 l 0.78,0.78 -0.78,0.78 C 11.1,14.46 11,14.72 11,15 v 1 h 1 c 0.28,0 0.54,-0.1 0.72,-0.28 l 0.78,-0.79 0.78,0.79 C 14.46,15.9 14.72,16 15,16 h 1 v -1 c 0,-0.28 -0.1,-0.54 -0.28,-0.72 L 14.94,13.5 15.72,12.72 C 15.9,12.53 16,12.27 16,12 v -1 h -1 c -0.28,0 -0.54,0.1 -0.72,0.28 L 13.5,12.06 12.72,11.28 C 12.54,11.1 12.28,11 12,11 Z"
     id="path7" />
</svg>
