<?xml version="1.0" encoding="UTF-8" standalone="no"?>
<svg
   width="16"
   height="16"
   version="1.1"
   id="svg7"
   sodipodi:docname="network-wired-secure.svg"
   inkscape:version="1.1.1 (3bf5ae0d25, 2021-09-20, custom)"
   xmlns:inkscape="http://www.inkscape.org/namespaces/inkscape"
   xmlns:sodipodi="http://sodipodi.sourceforge.net/DTD/sodipodi-0.dtd"
   xmlns="http://www.w3.org/2000/svg"
   xmlns:svg="http://www.w3.org/2000/svg">
  <sodipodi:namedview
     id="namedview9"
     pagecolor="#505050"
     bordercolor="#ffffff"
     borderopacity="1"
     inkscape:pageshadow="0"
     inkscape:pageopacity="0"
     inkscape:pagecheckerboard="1"
     showgrid="false"
     inkscape:zoom="29.958333"
     inkscape:cx="10.431154"
     inkscape:cy="11.98331"
     inkscape:window-width="2544"
     inkscape:window-height="1330"
     inkscape:window-x="0"
     inkscape:window-y="34"
     inkscape:window-maximized="1"
     inkscape:current-layer="svg7" />
  <defs
     id="defs3">
    <style
       id="current-color-scheme"
       type="text/css">
   .ColorScheme-Text { color:#eeeeec; } .ColorScheme-Highlight { color:#367bf0; } .ColorScheme-NeutralText { color:#ffcc44; } .ColorScheme-PositiveText { color:#3db47e; } .ColorScheme-NegativeText { color:#dd4747; }
  </style>
  </defs>
  <path
     style="fill:#dfdfdf;stroke-width:0.995239;fill-opacity:1"
     class="ColorScheme-Text"
     d="M 1,2 C 1,2 0,2 0,2.9905001 v 9.9049989 c 0,0.9905 1,0.9905 1,0.9905 h 2 l 1,0.9905 h 5 v -1.981 H 5 L 4,11.905001 H 2 V 3.9809999 h 1 v 1.981 h 1 v -1.981 h 1 v 1.981 h 1 v -1.981 h 1 v 1.981 h 1 v -1.981 h 1 v 1.981 h 1 v -1.981 h 1 v 1.981 h 1 v -1.981 h 1 v 3.9619999 c 0.771566,0 1.471447,0.297992 2,0.781567 V 2.9905001 C 15,2 14,2 14,2 Z m 12,6.9334998 c -1.108,0 -2,0.9025932 -2,2.0119532 v 0.959548 H 10 V 15.867 h 6 V 11.905001 H 15 V 10.945453 C 15,9.836093 14.108,8.9334998 13,8.9334998 Z m 0,0.9905001 c 0.554,0 1,0.4378011 1,0.9905001 v 0.990501 H 12 V 10.9145 c 0,-0.552699 0.446,-0.9905001 1,-0.9905001 z"
     id="path5" />
</svg>
