<?xml version="1.0" encoding="UTF-8" standalone="no"?>
<svg
   height="16"
   width="16"
   version="1.1"
   id="svg22"
   sodipodi:docname="nm-stage01-connecting04.svg"
   inkscape:version="1.1.1 (3bf5ae0d25, 2021-09-20, custom)"
   xmlns:inkscape="http://www.inkscape.org/namespaces/inkscape"
   xmlns:sodipodi="http://sodipodi.sourceforge.net/DTD/sodipodi-0.dtd"
   xmlns:xlink="http://www.w3.org/1999/xlink"
   xmlns="http://www.w3.org/2000/svg"
   xmlns:svg="http://www.w3.org/2000/svg">
  <sodipodi:namedview
     id="namedview24"
     pagecolor="#505050"
     bordercolor="#ffffff"
     borderopacity="1"
     inkscape:pageshadow="0"
     inkscape:pageopacity="0"
     inkscape:pagecheckerboard="1"
     showgrid="false"
     inkscape:zoom="29.958333"
     inkscape:cx="11.732962"
     inkscape:cy="11.98331"
     inkscape:window-width="2544"
     inkscape:window-height="1330"
     inkscape:window-x="0"
     inkscape:window-y="34"
     inkscape:window-maximized="1"
     inkscape:current-layer="svg22" />
  <defs
     id="defs14">
    <linearGradient
       id="a">
      <stop
         offset="0"
         stop-color="#dbdee0"
         id="stop2" />
      <stop
         offset="1"
         stop-color="#dbdee0"
         stop-opacity="0"
         id="stop4" />
    </linearGradient>
    <linearGradient
       id="b">
      <stop
         offset="0"
         stop-color="#dbdee0"
         id="stop7" />
      <stop
         offset="1"
         stop-color="#dbdee0"
         stop-opacity="0"
         id="stop9" />
    </linearGradient>
    <linearGradient
       gradientTransform="matrix(0,-1,-1,0,544.125,391.875)"
       gradientUnits="userSpaceOnUse"
       xlink:href="#b"
       id="d"
       x1="5.875"
       x2="3.875"
       y1="31.125"
       y2="4.125" />
    <linearGradient
       gradientTransform="rotate(90,88,456)"
       gradientUnits="userSpaceOnUse"
       xlink:href="#a"
       id="c"
       x1="12"
       x2="23"
       y1="6"
       y2="10" />
  </defs>
  <g
     font-weight="400"
     color="#000000"
     font-family="Sans"
     id="g20"
     transform="translate(-4,-4)">
    <path
       d="m 540,380 c 0,-4.406 -3.594,-8 -8,-8 -4.406,0 -8,3.594 -8,8 h 2 c 0,-3.326 2.674,-6 6,-6 3.326,0 6,2.674 6,6 a 1,1 0 0 0 2,0 z"
       style="line-height:normal;-inkscape-font-specification:Sans;text-indent:0;text-align:start;text-transform:none;fill:url(#c);marker:none"
       fill="url(#c)"
       overflow="visible"
       transform="translate(-520,-368)"
       id="path16" />
    <path
       d="m 540,380 c 0,4.406 -3.594,8 -8,8 -4.406,0 -8,-3.594 -8,-8 h 2 c 0,3.326 2.674,6 6,6 3.326,0 6,-2.674 6,-6 z"
       style="line-height:normal;-inkscape-font-specification:Sans;text-indent:0;text-align:start;text-transform:none;fill:url(#d);marker:none"
       fill="url(#d)"
       overflow="visible"
       transform="translate(-520,-368)"
       id="path18" />
  </g>
</svg>
